<?xml version="1.0" encoding="UTF-8"?>
<svg width="24px" height="24px" viewBox="0 0 24 24" version="1.1" xmlns="http://www.w3.org/2000/svg" xmlns:xlink="http://www.w3.org/1999/xlink">
    <!-- Generator: Sketch 47.1 (45422) - http://www.bohemiancoding.com/sketch -->
    <title>web_ims_system_focus copy</title>
    <desc>Created with Sketch.</desc>
    <defs></defs>
    <g id="Symbols" stroke="none" stroke-width="1" fill="none" fill-rule="evenodd">
        <g id="web_ims_system_focus-copy">
            <g id="system">
                <rect id="Rectangle-17" x="0" y="0" width="24" height="24"></rect>
                <g id="Sliders" transform="translate(3.000000, 3.000000)" fill-rule="nonzero">
                    <path d="M1.8,4.8 C0.80565,4.8 0,5.60565 0,6.6 L0,9 C0,9.99435 0.80565,10.8 1.8,10.8 C2.79435,10.8 3.6,9.99435 3.6,9 L3.6,6.6 C3.6,5.60565 2.79435,4.8 1.8,4.8 Z M2.4,9 C2.4,9.33105 2.13105,9.6 1.8,9.6 C1.46895,9.6 1.2,9.33105 1.2,9 L1.2,6.6 C1.2,6.26895 1.46895,6 1.8,6 C2.13105,6 2.4,6.26895 2.4,6.6 L2.4,9 Z M6.6,7.2 C5.60565,7.2 4.8,8.00565 4.8,9 L4.8,11.4 C4.8,12.39435 5.60565,13.2 6.6,13.2 C7.59435,13.2 8.4,12.39435 8.4,11.4 L8.4,9 C8.4,8.00565 7.59435,7.2 6.6,7.2 Z M7.2,11.4 C7.2,11.73105 6.93105,12 6.6,12 C6.26895,12 6,11.73105 6,11.4 L6,9 C6,8.66895 6.26895,8.4 6.6,8.4 C6.93105,8.4 7.2,8.66895 7.2,9 L7.2,11.4 Z M11.4,3.6 C10.40565,3.6 9.6,4.40565 9.6,5.4 L9.6,7.8 C9.6,8.79435 10.40565,9.6 11.4,9.6 C12.39435,9.6 13.2,8.79435 13.2,7.8 L13.2,5.4 C13.2,4.40565 12.39435,3.6 11.4,3.6 Z M12,7.8 C12,8.13105 11.73105,8.4 11.4,8.4 C11.06895,8.4 10.8,8.13105 10.8,7.8 L10.8,5.4 C10.8,5.06895 11.06895,4.8 11.4,4.8 C11.73105,4.8 12,5.06895 12,5.4 L12,7.8 Z M16.2,9.6 C15.20565,9.6 14.4,10.40565 14.4,11.4 L14.4,13.8 C14.4,14.79435 15.20565,15.6 16.2,15.6 C17.19435,15.6 18,14.79435 18,13.8 L18,11.4 C18,10.40565 17.19435,9.6 16.2,9.6 Z M16.8,13.8 C16.8,14.13105 16.53105,14.4 16.2,14.4 C15.86895,14.4 15.6,14.13105 15.6,13.8 L15.6,11.4 C15.6,11.06895 15.86895,10.8 16.2,10.8 C16.53105,10.8 16.8,11.06895 16.8,11.4 L16.8,13.8 Z" id="Shape" fill="#FFFFFF"></path>
                    <path d="M1.8,3.6 C2.00565,3.6 2.20605,3.62115 2.4,3.6609 L2.4,0.6 C2.4,0.26835 2.13165,0 1.8,0 C1.46835,0 1.2,0.26835 1.2,0.6 L1.2,3.6609 C1.39395,3.62115 1.59435,3.6 1.8,3.6 Z" id="Shape" fill="#B0BEC5"></path>
                    <path d="M1.8,12 C1.59435,12 1.39395,11.97885 1.2,11.9391 L1.2,17.4 C1.2,17.73165 1.46835,18 1.8,18 C2.13165,18 2.4,17.73165 2.4,17.4 L2.4,11.9391 C2.20605,11.97885 2.00565,12 1.8,12 Z" id="Shape" fill="#B0BEC5"></path>
                    <path d="M6.6,6 C6.80565,6 7.00605,6.02115 7.2,6.0609 L7.2,0.6 C7.2,0.26835 6.93165,0 6.6,0 C6.26835,0 6,0.26835 6,0.6 L6,6.0609 C6.19395,6.02115 6.39435,6 6.6,6 Z" id="Shape" fill="#B0BEC5"></path>
                    <path d="M6.6,14.4 C6.39435,14.4 6.19395,14.37885 6,14.3391 L6,17.4 C6,17.73165 6.26835,18 6.6,18 C6.93165,18 7.2,17.73165 7.2,17.4 L7.2,14.3391 C7.00605,14.37885 6.80565,14.4 6.6,14.4 Z" id="Shape" fill="#B0BEC5"></path>
                    <path d="M11.4,2.4 C11.60565,2.4 11.80605,2.42115 12,2.4609 L12,0.6 C12,0.26835 11.73165,0 11.4,0 C11.06835,0 10.8,0.26835 10.8,0.6 L10.8,2.4609 C10.99395,2.42115 11.19435,2.4 11.4,2.4 Z" id="Shape" fill="#B0BEC5"></path>
                    <path d="M11.4,10.8 C11.19435,10.8 10.99395,10.77885 10.8,10.7391 L10.8,17.4 C10.8,17.73165 11.06835,18 11.4,18 C11.73165,18 12,17.73165 12,17.4 L12,10.7391 C11.80605,10.77885 11.60565,10.8 11.4,10.8 Z" id="Shape" fill="#B0BEC5"></path>
                    <path d="M16.2,8.4 C16.40565,8.4 16.60605,8.42115 16.8,8.4609 L16.8,0.6 C16.8,0.26835 16.53165,0 16.2,0 C15.86835,0 15.6,0.26835 15.6,0.6 L15.6,8.4609 C15.79395,8.42115 15.99435,8.4 16.2,8.4 Z" id="Shape" fill="#B0BEC5"></path>
                    <path d="M16.2,16.8 C15.99435,16.8 15.79395,16.77885 15.6,16.7391 L15.6,17.4 C15.6,17.73165 15.86835,18 16.2,18 C16.53165,18 16.8,17.73165 16.8,17.4 L16.8,16.7391 C16.60605,16.77885 16.40565,16.8 16.2,16.8 Z" id="Shape" fill="#B0BEC5"></path>
                </g>
            </g>
        </g>
    </g>
</svg>