<?xml version="1.0" encoding="UTF-8"?>
<svg width="24px" height="24px" viewBox="0 0 24 24" version="1.1" xmlns="http://www.w3.org/2000/svg" xmlns:xlink="http://www.w3.org/1999/xlink">
    <!-- Generator: Sketch 47.1 (45422) - http://www.bohemiancoding.com/sketch -->
    <title>web_ims_pay_normal</title>
    <desc>Created with Sketch.</desc>
    <defs></defs>
    <g id="Symbols" stroke="none" stroke-width="1" fill="none" fill-rule="evenodd">
        <g id="web_ims_pay_normal">
            <g id="pay">
                <rect id="Rectangle-9" x="0" y="0" width="24" height="24"></rect>
                <g id="Clipboard" transform="translate(4.000000, 3.000000)" fill-rule="nonzero">
                    <path d="M13.7142857,3.42857143 L12.2544286,3.42857143 C11.8582857,2.74771429 11.1294286,2.28571429 10.2857143,2.28571429 C10.2857143,1.02342857 9.26228571,0 8,0 C6.73771429,0 5.71428571,1.02342857 5.71428571,2.28571429 C4.87057143,2.28571429 4.14171429,2.74771429 3.74528571,3.42857143 L2.28571429,3.42857143 C1.02342857,3.42857143 0,4.452 0,5.71428571 L0,16 C0,17.2622857 1.02342857,18.2857143 2.28571429,18.2857143 L13.7142857,18.2857143 C14.9765714,18.2857143 16,17.2622857 16,16 L16,5.71428571 C16,4.452 14.9765714,3.42857143 13.7142857,3.42857143 Z M4.57142857,4.57142857 C4.57142857,3.94085714 5.08371429,3.42857143 5.71428571,3.42857143 L6.85714286,3.42857143 L6.85714286,2.28571429 C6.85714286,1.65514286 7.36942857,1.14285714 8,1.14285714 C8.63057143,1.14285714 9.14285714,1.65514286 9.14285714,2.28571429 L9.14285714,3.42857143 L10.2857143,3.42857143 C10.9162857,3.42857143 11.4285714,3.94085714 11.4285714,4.57142857 L11.4285714,5.71428571 L4.57142857,5.71428571 L4.57142857,4.57142857 Z M12.5714286,6.85714286 L12.5714286,14.8571429 L3.42857143,14.8571429 L3.42857143,6.85714286 L12.5714286,6.85714286 Z M14.8571429,16 C14.8571429,16.6305714 14.3448571,17.1428571 13.7142857,17.1428571 L2.28571429,17.1428571 C1.65514286,17.1428571 1.14285714,16.6305714 1.14285714,16 L1.14285714,5.71428571 C1.14285714,5.08371429 1.65514286,4.57142857 2.28571429,4.57142857 L3.42857143,4.57142857 L3.42857143,5.71428571 L2.28571429,5.71428571 L2.28571429,16 L13.7142857,16 L13.7142857,5.71428571 L12.5714286,5.71428571 L12.5714286,4.57142857 L13.7142857,4.57142857 C14.3448571,4.57142857 14.8571429,5.08371429 14.8571429,5.71428571 L14.8571429,16 Z M9.14285714,4.57142857 L9.14285714,3.42857143 L6.85714286,3.42857143 L6.85714286,4.57142857 L9.14285714,4.57142857 Z" id="Shape" fill="#FFFFFF"></path>
                    <polygon id="Shape" fill="#B0BEC5" points="11.4285714 8 4.57142857 8 4.57142857 9.14285714 11.4285714 9.14285714"></polygon>
                    <polygon id="Shape" fill="#B0BEC5" points="11.4285714 10.2857143 4.57142857 10.2857143 4.57142857 11.4285714 11.4285714 11.4285714"></polygon>
                    <polygon id="Shape" fill="#B0BEC5" points="8 12.5714286 4.57142857 12.5714286 4.57142857 13.7142857 8 13.7142857"></polygon>
                </g>
            </g>
        </g>
    </g>
</svg>