<?xml version="1.0" encoding="UTF-8"?>
<svg width="24px" height="24px" viewBox="0 0 24 24" version="1.1" xmlns="http://www.w3.org/2000/svg" xmlns:xlink="http://www.w3.org/1999/xlink">
    <!-- Generator: Sketch 47.1 (45422) - http://www.bohemiancoding.com/sketch -->
    <title>web_ims_made_focus</title>
    <desc>Created with Sketch.</desc>
    <defs></defs>
    <g id="Symbols" stroke="none" stroke-width="1" fill="none" fill-rule="evenodd">
        <g id="web_ims_made_focus">
            <g id="made">
                <rect id="Rectangle-13" x="0" y="0" width="24" height="24"></rect>
                <g id="PriceTag" transform="translate(2.000000, 2.000000)" fill-rule="nonzero" fill="#FF551B">
                    <path d="M13.6921538,11.0769231 C12.3327692,11.0769231 11.2306154,12.1790769 11.2306154,13.5384615 C11.2306154,14.8978462 12.3327692,16 13.6921538,16 C15.0515385,16 16.1536923,14.8978462 16.1536923,13.5384615 C16.1536923,12.1790769 15.0515385,11.0769231 13.6921538,11.0769231 Z M13.6921538,14.7692308 C13.0136923,14.7692308 12.4613846,14.2169231 12.4613846,13.5384615 C12.4613846,12.86 13.0136923,12.3076923 13.6921538,12.3076923 C14.3706154,12.3076923 14.9229231,12.86 14.9229231,13.5384615 C14.9229231,14.2169231 14.3706154,14.7692308 13.6921538,14.7692308 Z" id="Shape"></path>
                    <path d="M19.1346154,9.33661538 L10.5143077,0.721230769 C10.0335385,0.240153846 9.40123077,0 8.77138462,0 C8.14153846,0 7.51046154,0.240153846 7.02969231,0.721230769 L0.875076923,6.87476923 C-0.0864615385,7.836 -0.0867692308,9.39492308 0.874769231,10.3558462 L9.49015385,18.9712308 C9.97092308,19.452 10.6006154,19.6924615 11.2304615,19.6924615 L18.6153846,19.6924615 C18.9392308,19.6924615 19.2578462,19.5644615 19.4904615,19.3318462 C19.6918462,19.1304615 19.8463077,18.8686154 19.8463077,18.5923077 L19.8463077,11.2776923 C19.8461538,10.5823077 19.6664615,9.86846154 19.1346154,9.33661538 Z M11.2306154,18.4615385 C10.9018462,18.4615385 10.5929231,18.3335385 10.3604615,18.1009231 L1.74476923,9.48492308 C1.51215385,9.25307692 1.38415385,8.94415385 1.38415385,8.61538462 C1.38415385,8.28661538 1.51215385,7.97769231 1.74476923,7.74523077 L7.89876923,1.59138462 C8.13138462,1.35876923 8.44030769,1.23076923 8.76907692,1.23076923 C9.09784615,1.23076923 9.40676923,1.35876923 9.63923077,1.59138462 L18.2547692,10.2067692 C18.5961538,10.5481538 18.6273846,10.9621538 18.61,11.178 L18.6153846,18.4615385 L11.2306154,18.4615385 Z" id="Shape"></path>
                </g>
            </g>
        </g>
    </g>
</svg>