<?xml version="1.0" encoding="UTF-8"?>
<svg width="24px" height="24px" viewBox="0 0 24 24" version="1.1" xmlns="http://www.w3.org/2000/svg" xmlns:xlink="http://www.w3.org/1999/xlink">
    <!-- Generator: Sketch 47.1 (45422) - http://www.bohemiancoding.com/sketch -->
    <title>web_ims_setting_focus</title>
    <desc>Created with Sketch.</desc>
    <defs></defs>
    <g id="Symbols" stroke="none" stroke-width="1" fill="none" fill-rule="evenodd">
        <g id="web_ims_setting_focus">
            <g id="setting">
                <rect id="Rectangle-15" x="0" y="0" width="24" height="24"></rect>
                <g id="Settings" transform="translate(2.000000, 2.000000)" fill-rule="nonzero" fill="#FF551B">
                    <path d="M20,10 C20,8.619375 18.880625,7.5 17.5,7.5 L16.0357812,7.5 L17.0709375,6.46484375 C18.0475,5.48828125 18.0475,3.905 17.0709375,2.9284375 C16.5832813,2.44140625 15.9429688,2.1971875 15.3032813,2.1971875 C14.6635937,2.1971875 14.0234375,2.44140625 13.535625,2.9284375 L12.5,3.96484375 L12.5,2.5 C12.5,1.119375 11.380625,0 10,0 C8.619375,0 7.5,1.119375 7.5,2.5 L7.5,3.96484375 L6.46421875,2.9284375 C5.9765625,2.44140625 5.33625,2.1971875 4.6965625,2.1971875 C4.056875,2.1971875 3.41671875,2.44140625 2.92890625,2.9284375 C1.95234375,3.905 1.95234375,5.48828125 2.92890625,6.46484375 L3.96421875,7.5 L2.5,7.5 C1.119375,7.5 0,8.619375 0,10 C0,11.380625 1.119375,12.5 2.5,12.5 L3.96421875,12.5 L2.9290625,13.5351562 C1.9525,14.5117188 1.9525,16.095 2.9290625,17.0715625 C3.41671875,17.5585938 4.05703125,17.8028125 4.69671875,17.8028125 C5.33640625,17.8028125 5.9765625,17.5585937 6.464375,17.0715625 L7.5,16.0351562 L7.5,17.5 C7.5,18.880625 8.619375,20 10,20 C11.380625,20 12.5,18.880625 12.5,17.5 L12.5,16.0351562 L13.5357813,17.0715625 C14.0234375,17.5585938 14.66375,17.8028125 15.3034375,17.8028125 C15.943125,17.8028125 16.5832813,17.5585937 17.0710938,17.0715625 C18.0476563,16.095 18.0476563,14.5117187 17.0710938,13.5351562 L16.0357812,12.5 L17.5,12.5 C18.880625,12.5 20,11.380625 20,10 Z M14.8809375,12.0215625 C14.6875,12.4890625 14.7942187,13.02625 15.151875,13.3839063 L16.1870312,14.4190625 C16.6746875,14.9073437 16.6746875,15.7007812 16.1870312,16.1878125 C15.9514062,16.4234375 15.6370312,16.5528125 15.3032812,16.5528125 C14.9695312,16.5528125 14.6551562,16.4234375 14.4201562,16.1878125 L13.384375,15.1514063 C13.1451562,14.9121875 12.8253125,14.7851563 12.5,14.7851563 C12.3389062,14.7851563 12.1765625,14.815625 12.0220312,14.8803125 C11.5545313,15.0732812 11.25,15.5298438 11.25,16.0351562 L11.25,17.5 C11.25,18.1896875 10.6890625,18.75 10,18.75 C9.3109375,18.75 8.75,18.1896875 8.75,17.5 L8.75,16.0351562 C8.75,15.5298438 8.44546875,15.0732812 7.97796875,14.8803125 C7.8234375,14.815625 7.66109375,14.7851562 7.5,14.7851562 C7.1746875,14.7851562 6.85484375,14.9121875 6.615625,15.1514062 L5.58046875,16.1878125 C5.34484375,16.4234375 5.03046875,16.5528125 4.69671875,16.5528125 C4.36296875,16.5528125 4.04859375,16.4234375 3.81296875,16.1878125 C3.3253125,15.7007812 3.3253125,14.9073437 3.81296875,14.4190625 L4.848125,13.3839062 C5.20578125,13.02625 5.31265625,12.4890625 5.1190625,12.0215625 C4.92546875,11.5551563 4.46953125,11.25 3.96421875,11.25 L2.5,11.25 C1.8109375,11.25 1.25,10.6896875 1.25,10 C1.25,9.3103125 1.8109375,8.75 2.5,8.75 L3.96421875,8.75 C4.46953125,8.75 4.92546875,8.44484375 5.1190625,7.9784375 C5.3125,7.5109375 5.20578125,6.97375 4.848125,6.61609375 L3.81296875,5.5809375 C3.3253125,5.09265625 3.3253125,4.29921875 3.81296875,3.8121875 C4.04859375,3.5765625 4.36296875,3.4471875 4.69671875,3.4471875 C5.03046875,3.4471875 5.34484375,3.5765625 5.57984375,3.8121875 L6.615625,4.84859375 C6.85484375,5.0878125 7.1746875,5.21484375 7.5,5.21484375 C7.66109375,5.21484375 7.8234375,5.184375 7.97796875,5.1196875 C8.44546875,4.92671875 8.75,4.47015625 8.75,3.96484375 L8.75,2.5 C8.75,1.8103125 9.3109375,1.25 10,1.25 C10.6890625,1.25 11.25,1.8103125 11.25,2.5 L11.25,3.96484375 C11.25,4.47015625 11.5545313,4.92671875 12.0220312,5.1196875 C12.1764063,5.184375 12.33875,5.21484375 12.5,5.21484375 C12.8253125,5.21484375 13.1451563,5.0878125 13.384375,4.84859375 L14.4195313,3.8121875 C14.6551562,3.5765625 14.9695312,3.4471875 15.3032812,3.4471875 C15.6370313,3.4471875 15.9514062,3.5765625 16.1870313,3.8121875 C16.6746875,4.29921875 16.6746875,5.09265625 16.1870313,5.5809375 L15.151875,6.61609375 C14.7942188,6.97375 14.6873438,7.5109375 14.8809375,7.9784375 C15.0745312,8.44484375 15.5304687,8.75 16.0357812,8.75 L17.5,8.75 C18.1890625,8.75 18.75,9.3103125 18.75,10 C18.75,10.6896875 18.1890625,11.25 17.5,11.25 L16.0357812,11.25 C15.5304687,11.25 15.0745312,11.5551563 14.8809375,12.0215625 Z" id="Shape"></path>
                    <path d="M10,13.75 C12.0678125,13.75 13.75,12.0678125 13.75,10 C13.75,7.9321875 12.0678125,6.25 10,6.25 C7.9321875,6.25 6.25,7.9321875 6.25,10 C6.25,12.0678125 7.9321875,13.75 10,13.75 L10,13.75 Z M10,12.5 C8.619375,12.5 7.5,11.380625 7.5,10 C7.5,8.619375 8.619375,7.5 10,7.5 C11.380625,7.5 12.5,8.619375 12.5,10 C12.5,11.380625 11.380625,12.5 10,12.5 L10,12.5 Z" id="Shape"></path>
                </g>
            </g>
        </g>
    </g>
</svg>