<?xml version="1.0" encoding="UTF-8"?>
<svg width="24px" height="24px" viewBox="0 0 24 24" version="1.1" xmlns="http://www.w3.org/2000/svg" xmlns:xlink="http://www.w3.org/1999/xlink">
    <!-- Generator: Sketch 47.1 (45422) - http://www.bohemiancoding.com/sketch -->
    <title>web_ims_mall_focus</title>
    <desc>Created with Sketch.</desc>
    <defs></defs>
    <g id="Symbols" stroke="none" stroke-width="1" fill="none" fill-rule="evenodd">
        <g id="web_ims_mall_focus" fill="#FF551B">
            <g id="mall">
                <g id="ShoppingCart" transform="translate(2.000000, 2.000000)">
                    <path d="M1.36363636,7.27272727 L1.36363636,8.48484848 L2.57575758,8.48484848 L2.57575758,7.27272727 L1.36363636,7.27272727 Z M3.78787879,6.06060606 L2.57575758,6.06060606 L2.57575758,7.27272727 L3.78787879,7.27272727 L3.78787879,6.06060606 Z M5,8.48484848 L5,7.27272727 L3.78787879,7.27272727 L3.78787879,8.48484848 L5,8.48484848 Z M3.78787879,8.48484848 L2.57575758,8.48484848 L2.57575758,9.6969697 L3.78787879,9.6969697 L3.78787879,8.48484848 Z M1.36363636,9.6969697 L1.36363636,10.9090909 L2.57575758,10.9090909 L2.57575758,9.6969697 L1.36363636,9.6969697 Z M2.57575758,10.9090909 L2.57575758,12.1212121 L3.78787879,12.1212121 L3.78787879,10.9090909 L2.57575758,10.9090909 Z M3.78787879,9.6969697 L3.78787879,10.9090909 L5,10.9090909 L5,9.6969697 L3.78787879,9.6969697 Z M3.78787879,13.3333333 L5,13.3333333 L5,12.1212121 L3.78787879,12.1212121 L3.78787879,13.3333333 Z M5,10.9090909 L5,12.1212121 L6.21212121,12.1212121 L6.21212121,10.9090909 L5,10.9090909 Z M6.21212121,9.6969697 L6.21212121,8.48484848 L5,8.48484848 L5,9.6969697 L6.21212121,9.6969697 Z M6.21212121,6.06060606 L5,6.06060606 L5,7.27272727 L6.21212121,7.27272727 L6.21212121,6.06060606 Z M7.42424242,8.48484848 L7.42424242,7.27272727 L6.21212121,7.27272727 L6.21212121,8.48484848 L7.42424242,8.48484848 Z M6.21212121,9.6969697 L6.21212121,10.9090909 L7.42424242,10.9090909 L7.42424242,9.6969697 L6.21212121,9.6969697 Z M6.21212121,13.3333333 L7.42424242,13.3333333 L7.42424242,12.1212121 L6.21212121,12.1212121 L6.21212121,13.3333333 Z M7.42424242,10.9090909 L7.42424242,12.1212121 L8.63636364,12.1212121 L8.63636364,10.9090909 L7.42424242,10.9090909 Z M8.63636364,9.6969697 L8.63636364,8.48484848 L7.42424242,8.48484848 L7.42424242,9.6969697 L8.63636364,9.6969697 Z M8.63636364,6.06060606 L7.42424242,6.06060606 L7.42424242,7.27272727 L8.63636364,7.27272727 L8.63636364,6.06060606 Z M9.84848485,8.48484848 L9.84848485,7.27272727 L8.63636364,7.27272727 L8.63636364,8.48484848 L9.84848485,8.48484848 Z M8.63636364,9.6969697 L8.63636364,10.9090909 L9.84848485,10.9090909 L9.84848485,9.6969697 L8.63636364,9.6969697 Z M8.63636364,13.3333333 L9.84848485,13.3333333 L9.84848485,12.1212121 L8.63636364,12.1212121 L8.63636364,13.3333333 Z M9.84848485,10.9090909 L9.84848485,12.1212121 L11.0606061,12.1212121 L11.0606061,10.9090909 L9.84848485,10.9090909 Z M11.0606061,9.6969697 L11.0606061,8.48484848 L9.84848485,8.48484848 L9.84848485,9.6969697 L11.0606061,9.6969697 Z M11.0606061,6.06060606 L9.84848485,6.06060606 L9.84848485,7.27272727 L11.0606061,7.27272727 L11.0606061,6.06060606 Z M12.2727273,8.48484848 L12.2727273,7.27272727 L11.0606061,7.27272727 L11.0606061,8.48484848 L12.2727273,8.48484848 Z M11.0606061,10.9090909 L12.2727273,10.9090909 L12.2727273,9.6969697 L11.0606061,9.6969697 L11.0606061,10.9090909 Z M11.0606061,13.3333333 L12.2727273,13.3333333 L12.2727273,12.1212121 L11.0606061,12.1212121 L11.0606061,13.3333333 Z M12.2727273,12.1212121 L13.4848485,12.1212121 L13.4848485,10.9090909 L12.2727273,10.9090909 L12.2727273,12.1212121 Z M12.2727273,8.48484848 L12.2727273,9.6969697 L13.4848485,9.6969697 L13.4848485,8.48484848 L12.2727273,8.48484848 Z M13.4848485,6.06060606 L12.2727273,6.06060606 L12.2727273,7.27272727 L13.4848485,7.27272727 L13.4848485,6.06060606 Z M14.6969697,8.48484848 L14.6969697,7.27272727 L13.4848485,7.27272727 L13.4848485,8.48484848 L14.6969697,8.48484848 Z M14.6969697,10.9090909 L14.6969697,9.6969697 L13.4848485,9.6969697 L13.4848485,10.9090909 L14.6969697,10.9090909 Z" id="Shape"></path>
                    <path d="M4.39393939,16.969697 C4.72833333,16.969697 5,17.2407576 5,17.5757576 C5,17.9101515 4.72833333,18.1818182 4.39393939,18.1818182 C4.05954545,18.1818182 3.78787879,17.9101515 3.78787879,17.5757576 C3.78787879,17.2407576 4.05954545,16.969697 4.39393939,16.969697 L4.39393939,16.969697 Z M4.39393939,15.7575758 C3.38954545,15.7575758 2.57575758,16.5713636 2.57575758,17.5757576 C2.57575758,18.5801515 3.38954545,19.3939394 4.39393939,19.3939394 C5.39833333,19.3939394 6.21212121,18.5801515 6.21212121,17.5757576 C6.21212121,16.5713636 5.39833333,15.7575758 4.39393939,15.7575758 L4.39393939,15.7575758 Z" id="Shape" fill-rule="nonzero"></path>
                    <path d="M11.6666667,16.969697 C12.0010606,16.969697 12.2727273,17.2407576 12.2727273,17.5757576 C12.2727273,17.9101515 12.0010606,18.1818182 11.6666667,18.1818182 C11.3322727,18.1818182 11.0606061,17.9101515 11.0606061,17.5757576 C11.0606061,17.2407576 11.3322727,16.969697 11.6666667,16.969697 L11.6666667,16.969697 Z M11.6666667,15.7575758 C10.6622727,15.7575758 9.84848485,16.5713636 9.84848485,17.5757576 C9.84848485,18.5801515 10.6622727,19.3939394 11.6666667,19.3939394 C12.6710606,19.3939394 13.4848485,18.5801515 13.4848485,17.5757576 C13.4848485,16.5713636 12.6710606,15.7575758 11.6666667,15.7575758 L11.6666667,15.7575758 Z" id="Shape" fill-rule="nonzero"></path>
                    <path d="M18.9393939,0 L16.6666667,0 C16.3884848,0 16.1463636,0.189393939 16.0789394,0.459242424 L14.9816667,4.84848485 L1.36363636,4.84848485 C0.990151515,4.84848485 0.638030303,5.02075758 0.408333333,5.31484848 C0.178636364,5.60893939 0.096969697,5.99257576 0.187575758,6.35469697 L2.00575758,13.6274242 C2.14075758,14.1666667 2.62560606,14.5454545 3.18181818,14.5454545 L12.8787879,14.5454545 C13.4351515,14.5454545 13.9198485,14.1666667 14.0548485,13.6274242 L17.1401515,1.21212121 L18.9393939,1.21212121 C19.2743939,1.21212121 19.5454545,0.941060606 19.5454545,0.606060606 C19.5454545,0.271060606 19.2743939,0 18.9393939,0 Z M12.8787879,13.3333333 L3.18181818,13.3333333 L1.36363636,6.06060606 L14.6784848,6.06060606 L12.8787879,13.3333333 Z" id="Shape" fill-rule="nonzero"></path>
                </g>
            </g>
        </g>
    </g>
</svg>