<?xml version="1.0" encoding="UTF-8"?>
<svg width="24px" height="24px" viewBox="0 0 24 24" version="1.1" xmlns="http://www.w3.org/2000/svg" xmlns:xlink="http://www.w3.org/1999/xlink">
    <!-- Generator: Sketch 47.1 (45422) - http://www.bohemiancoding.com/sketch -->
    <title>web_ims_sale_focus</title>
    <desc>Created with Sketch.</desc>
    <defs></defs>
    <g id="Symbols" stroke="none" stroke-width="1" fill="none" fill-rule="evenodd">
        <g id="web_ims_sale_focus">
            <g id="sale">
                <rect id="Rectangle-6" x="0" y="0" width="24" height="24"></rect>
                <g id="Announcement" transform="translate(3.000000, 3.000000)" fill="#FF551B">
                    <path d="M6.42857143,16.7142857 L6.42857143,15.4285714 L5.14285714,15.4285714 L5.14285714,16.7142857 L6.42857143,16.7142857 Z M3.85714286,15.4285714 L5.14285714,15.4285714 L5.14285714,14.1428571 L3.85714286,14.1428571 L3.85714286,15.4285714 Z M6.42857143,14.1428571 L6.42857143,12.8571429 L5.14285714,12.8571429 L5.14285714,14.1428571 L6.42857143,14.1428571 Z M3.85714286,12.8571429 L5.14285714,12.8571429 L5.14285714,11.5714286 L3.85714286,11.5714286 L3.85714286,12.8571429 Z M5.14285714,11.5714286 L6.42857143,11.5714286 L6.42857143,10.2857143 L5.14285714,10.2857143 L5.14285714,11.5714286 Z M9,11.5714286 L9,10.2857143 L7.71428571,10.2857143 L7.71428571,11.5714286 L9,11.5714286 Z M6.42857143,10.2857143 L7.71428571,10.2857143 L7.71428571,9 L6.42857143,9 L6.42857143,10.2857143 Z M3.85714286,10.2857143 L5.14285714,10.2857143 L5.14285714,9 L3.85714286,9 L3.85714286,10.2857143 Z M2.57142857,10.2857143 L2.57142857,11.5714286 L3.85714286,11.5714286 L3.85714286,10.2857143 L2.57142857,10.2857143 Z M1.28571429,9 L1.28571429,10.2857143 L2.57142857,10.2857143 L2.57142857,9 L1.28571429,9 Z M3.85714286,7.71428571 L2.57142857,7.71428571 L2.57142857,9 L3.85714286,9 L3.85714286,7.71428571 Z M5.14285714,9 L6.42857143,9 L6.42857143,7.71428571 L5.14285714,7.71428571 L5.14285714,9 Z M9,9 L9,7.71428571 L7.71428571,7.71428571 L7.71428571,9 L9,9 Z M9,5.14285714 L7.71428571,5.14285714 L7.71428571,6.42857143 L9,6.42857143 L9,5.14285714 Z M6.42857143,6.42857143 L6.42857143,7.71428571 L7.71428571,7.71428571 L7.71428571,6.42857143 L6.42857143,6.42857143 Z M6.42857143,5.14285714 L5.14285714,5.14285714 L5.14285714,6.42857143 L6.42857143,6.42857143 L6.42857143,5.14285714 Z M5.14285714,7.71428571 L5.14285714,6.42857143 L3.85714286,6.42857143 L3.85714286,7.71428571 L5.14285714,7.71428571 Z M3.85714286,5.14285714 L2.57142857,5.14285714 L2.57142857,6.42857143 L3.85714286,6.42857143 L3.85714286,5.14285714 Z M1.28571429,6.42857143 L1.28571429,7.71428571 L2.57142857,7.71428571 L2.57142857,6.42857143 L1.28571429,6.42857143 Z" id="Shape"></path>
                    <path d="M15.4285714,1.28571429 C15.6670714,1.28571429 15.901875,1.35225 16.1040536,1.47776786 C16.4807679,1.71016071 16.7142857,2.12946429 16.7142857,2.57142857 L16.7142857,12.8571429 C16.7142857,13.2991071 16.4807679,13.7184107 16.1053393,13.9508036 C15.901875,14.0763214 15.6670714,14.1428571 15.4285714,14.1428571 C15.23025,14.1428571 15.0304821,14.095125 14.8535357,14.0072143 L8.28932143,10.7251071 C8.10723214,10.634625 7.91132143,10.5894643 7.71428571,10.5894643 C7.47948214,10.5894643 7.24467857,10.6534286 7.03880357,10.7815179 C6.65967857,11.0164821 6.42857143,11.4295179 6.42857143,11.8753393 L6.42857143,15.4285714 C6.42857143,16.1379643 5.85225,16.7142857 5.14285714,16.7142857 C4.43346429,16.7142857 3.85714286,16.1379643 3.85714286,15.4285714 L3.85714286,11.5714286 C3.85714286,10.86075 3.28210714,10.2857143 2.57142857,10.2857143 C1.86203571,10.2857143 1.28571429,9.70939286 1.28571429,9 L1.28571429,6.42857143 C1.28571429,5.71917857 1.86203571,5.14285714 2.57142857,5.14285714 L7.106625,5.14285714 C7.30623214,5.14285714 7.50342857,5.09641071 7.68166071,5.00721429 L14.85225,1.42119643 C15.0304821,1.33344643 15.23025,1.28571429 15.4285714,1.28571429 L15.4285714,1.28571429 Z M15.4285714,0 C15.035625,0 14.6413929,0.0904821429 14.2785,0.271285714 L7.106625,3.85714286 L2.57142857,3.85714286 C1.15135714,3.85714286 0,5.0085 0,6.42857143 L0,9 C0,10.4200714 1.15135714,11.5714286 2.57142857,11.5714286 L2.57142857,15.4285714 C2.57142857,16.8486429 3.72278571,18 5.14285714,18 C6.56292857,18 7.71428571,16.8486429 7.71428571,15.4285714 L7.71428571,11.8753393 L14.2785,15.1574464 C14.6413929,15.33825 15.035625,15.4285714 15.4285714,15.4285714 C15.8981786,15.4285714 16.3677857,15.2991964 16.7808214,15.0443036 C17.5379464,14.5759821 18,13.748625 18,12.8571429 L18,2.57142857 C18,1.67994643 17.5379464,0.852589286 16.7808214,0.384267857 C16.3677857,0.129375 15.8981786,0 15.4285714,0 L15.4285714,0 Z" id="Shape" fill-rule="nonzero"></path>
                </g>
            </g>
        </g>
    </g>
</svg>